PathFileType	4	(X/Y/Z)	/Users/itak/Documents/Research/Walk-IL/dataset/trc/00330_00011.trc
DataRate	CameraRate	NumFrames	NumMarkers	Units	OrigDataRate	OrigDataStartFrame	OrigNumFrames
100.000000	100.000000	4	53	mm	100.000000	123	493
Frame#	Time	RPSI			LPSI			L3			STRN			T10			C7			CLAV			RBAK			LBAK			LSHO			LUPA			LAEL			LAOL			LWTS			LWPS			LFRA			LIFD			LHTS			RSHO			RUPA			RAEL			RAOL			RWPS			RFRA			RIFD			RHTS			RHPS			RBHD			LFHD			RFHD			LBHD			LHIP			RHIP			RASI			LASI			LKNE			LTHI			LANK			LTIP			LTOE			LMT1			LMT5			LHEE			RKNE			RTHI			RANK			RTIP			RTOE			RMT1			RMT5			RHEE			RWTS			LHPS			
		X1	Y1	Z1	X2	Y2	Z2	X3	Y3	Z3	X4	Y4	Z4	X5	Y5	Z5	X6	Y6	Z6	X7	Y7	Z7	X8	Y8	Z8	X9	Y9	Z9	X10	Y10	Z10	X11	Y11	Z11	X12	Y12	Z12	X13	Y13	Z13	X14	Y14	Z14	X15	Y15	Z15	X16	Y16	Z16	X17	Y17	Z17	X18	Y18	Z18	X19	Y19	Z19	X20	Y20	Z20	X21	Y21	Z21	X22	Y22	Z22	X23	Y23	Z23	X24	Y24	Z24	X25	Y25	Z25	X26	Y26	Z26	X27	Y27	Z27	X28	Y28	Z28	X29	Y29	Z29	X30	Y30	Z30	X31	Y31	Z31	X32	Y32	Z32	X33	Y33	Z33	X34	Y34	Z34	X35	Y35	Z35	X36	Y36	Z36	X37	Y37	Z37	X38	Y38	Z38	X39	Y39	Z39	X40	Y40	Z40	X41	Y41	Z41	X42	Y42	Z42	X43	Y43	Z43	X44	Y44	Z44	X45	Y45	Z45	X46	Y46	Z46	X47	Y47	Z47	X48	Y48	Z48	X49	Y49	Z49	X50	Y50	Z50	X51	Y51	Z51	X52	Y52	Z52	X53	Y53	Z53	

124	1.23	770.7520751953125	957.0540771484375	211.3919677734375	761.0628051757812	953.0667114257812	81.33525085449219	758.8427124023438	1028.288696289062	146.7955322265625	997.1094970703125	1194.353271484375	118.6311721801758	759.1646118164062	1147.523559570312	140.2334747314453	810.3125	1392.538696289062	115.4101867675781	960.412841796875	1319.489990234375	113.2455902099609	760.466552734375	1259.722290039062	196.0531921386719	797.65576171875	1352.676513671875	14.68673706054688	882.821533203125	1367.335327148438	-45.24469757080078	863.21533203125	1246.237426757812	-111.0587310791016	879.273193359375	1040.96337890625	-115.2002105712891	815.2274169921875	1030.804321289062	-60.85089492797852	976.5400390625	802.3139038085938	-59.72130966186523	937.0418701171875	787.70263671875	-114.4642791748047	894.7162475585938	936.2266235351562	-117.8368148803711	985.6818237304688	642.6439819335938	-48.19268417358398	991.0946044921875	724.1812744140625	-73.48590850830078	884.9880981445312	1381.19873046875	272.4191284179688	882.1984252929688	1322.129150390625	344.0864562988281	889.7473754882812	1054.658569335938	392.6869506835938	829.746826171875	1043.452880859375	318.5200805664062	967.0289916992188	811.8978271484375	404.962890625	915.5670776367188	986.8671264648438	398.9541931152344	1018.850280761719	659.0933227539062	338.7892761230469	1031.234619140625	731.3417358398438	346.9434509277344	988.5767822265625	729.9254150390625	401.6495056152344	825.0350952148438	1574.596923828125	192.4117736816406	982.2725219726562	1622.817749023438	64.23810577392578	977.9414672851562	1622.333984375	165.3528289794922	805.4981079101562	1564.115234375	49.16680526733398	845.4542846679688	897.5606079101562	-26.55323791503906	861.116455078125	910.2213134765625	315.1224670410156	959.2445068359375	946.6638793945312	264.879150390625	964.751708984375	937.3453979492188	23.22653770446777	1005.91943359375	462.9476623535156	-20.98865509033203	977.0567626953125	591.1942138671875	-28.04323768615723	692.0768432617188	160.635498046875	-26.39737701416016	849.420166015625	305.0369873046875	-35.96415328979492	860.036865234375	44.49639511108398	25.06869506835938	797.9296264648438	68.97394561767578	68.15034484863281	790.6178588867188	86.52352905273438	-44.82125854492188	666.1959838867188	176.7111053466797	42.96141052246094	966.3212890625	448.6942138671875	273.3317565917969	963.2366943359375	709.0010375976562	305.37548828125	926.8838500976562	40.96505737304688	222.2195739746094	982.2471923828125	330.4968872070312	251.4228363037109	1115.341796875	32.66890716552734	155.8040466308594	1056.262329101562	28.8875789642334	118.0748596191406	1027.746215820312	26.969970703125	232.7340698242188	873.2811279296875	42.19901275634766	178.2822418212891	992.2503662109375	828.284423828125	334.1381530761719	936.0780029296875	717.7449951171875	-105.6145248413086	
125	1.24	768.1260375976562	957.4583129882812	210.3041381835938	758.8751220703125	953.4489135742188	80.28995513916016	756.3048706054688	1028.419921875	145.7140350341797	993.96875	1194.693359375	118.29931640625	756.156982421875	1147.557373046875	139.1277313232422	806.8698120117188	1392.64990234375	114.4751052856445	957.06884765625	1319.728271484375	112.861328125	757.0985717773438	1259.7314453125	194.9879455566406	794.7348022460938	1352.82763671875	13.70323657989502	880.0706787109375	1367.651489257812	-45.85568237304688	860.7464599609375	1246.626586914062	-111.8569488525391	877.0824584960938	1041.432861328125	-116.1615905761719	812.512451171875	1031.159912109375	-62.25270843505859	973.8077392578125	802.7103881835938	-59.59861755371094	935.2675170898438	788.30078125	-115.1137847900391	892.64453125	936.7366333007812	-118.7329559326172	982.9046630859375	642.9502563476562	-48.5595817565918	988.7153930664062	724.7021484375	-73.43563079833984	881.1163940429688	1381.416015625	271.7384033203125	877.9782104492188	1322.42822265625	343.4561767578125	884.3090209960938	1054.953979492188	392.442626953125	825.2655029296875	1043.833984375	317.7510070800781	960.7872924804688	812.0107421875	406.2362060546875	910.010498046875	987.2017211914062	399.4009094238281	1014.625122070312	659.6219482421875	341.1059875488281	1026.548095703125	731.8225708007812	349.4808959960938	982.594970703125	730.111328125	403.032958984375	821.4616088867188	1574.9072265625	191.6064910888672	978.977294921875	1622.92626953125	63.68184661865234	974.4561767578125	1622.523559570312	164.765380859375	802.1682739257812	1564.356567382812	48.34883117675781	843.7352905273438	897.7830810546875	-27.22723960876465	858.1256713867188	910.5316772460938	314.3212280273438	956.4000854492188	946.9838256835938	264.3886108398438	962.5556030273438	937.2332763671875	22.78291893005371	999.3538208007812	461.9338684082031	-21.48245429992676	971.8876342773438	590.3816528320312	-28.46114921569824	679.53857421875	166.1358795166016	-28.29584121704102	840.2230224609375	307.043212890625	-37.23590087890625	842.2279663085938	43.36388778686523	25.47028541564941	781.3003540039062	71.44524383544922	67.94998931884766	774.9354858398438	87.54871368408203	-45.46566772460938	654.0579833984375	183.9381561279297	40.73392105102539	963.6190185546875	448.919677734375	273.6434326171875	959.9979248046875	709.130126953125	305.1638488769531	926.9351806640625	40.86709976196289	222.3791198730469	980.3386840820312	330.8920288085938	251.8567352294922	1115.322631835938	32.63498687744141	155.8901824951172	1056.2890625	29.07828521728516	118.2541046142578	1027.810302734375	26.96778678894043	232.8540802001953	873.1995239257812	42.09601593017578	178.4688873291016	987.4783935546875	828.6520385742188	335.9542541503906	934.2996215820312	718.3341064453125	-106.6279373168945	
126	1.25	765.379150390625	957.8463134765625	209.1902770996094	756.5956420898438	953.8135986328125	79.23097991943359	753.6746215820312	1028.540771484375	144.5888366699219	990.7540283203125	1194.986083984375	117.9230422973633	753.0570678710938	1147.589477539062	137.9465484619141	803.3641967773438	1392.748779296875	113.4782485961914	953.657470703125	1319.921997070312	112.4337158203125	753.6302490234375	1259.751831054688	193.8587036132812	791.779052734375	1352.980590820312	12.64280414581299	877.3201904296875	1367.9716796875	-46.50354766845703	858.2985229492188	1247.027954101562	-112.7161865234375	874.776611328125	1041.905029296875	-117.1618118286133	809.7471313476562	1031.550048828125	-63.68542861938477	971.0496215820312	803.1286010742188	-59.67787551879883	933.2763671875	788.8356323242188	-115.7849273681641	890.4216918945312	937.2194213867188	-119.6776580810547	980.1661987304688	643.3292236328125	-48.99163055419922	986.2498779296875	725.206298828125	-73.53028869628906	877.1732177734375	1381.60791015625	271.001220703125	873.6620483398438	1322.700317382812	342.7682495117188	878.8450317382812	1055.252319335938	392.1270446777344	820.6000366210938	1044.213134765625	316.9957275390625	954.3682250976562	812.1224975585938	407.4407043457031	904.3634033203125	987.5371704101562	399.7597351074219	1009.906860351562	660.0083618164062	343.3509216308594	1021.459167480469	732.1698608398438	351.9030151367188	976.2985229492188	730.2233276367188	404.3435974121094	817.7622680664062	1575.13525390625	190.7742309570312	975.5672607421875	1623.034545898438	63.13180923461914	970.8406372070312	1622.691772460938	164.1815185546875	798.7352294921875	1564.53564453125	47.50915908813477	841.8734130859375	897.963134765625	-27.93581581115723	855.0443725585938	910.8473510742188	313.4935913085938	953.4635620117188	947.3043823242188	263.8267822265625	960.2529907226562	937.0569458007812	22.29356956481934	992.315673828125	460.8421630859375	-22.09682273864746	966.296142578125	589.5103149414062	-28.98210525512695	667.4216918945312	170.7426300048828	-30.28017616271973	830.9556884765625	308.6188049316406	-38.61456298828125	825.136962890625	42.52373123168945	26.04009056091309	765.2608642578125	73.76727294921875	67.95726013183594	759.8072509765625	88.09108734130859	-45.93389511108398	642.263916015625	190.2964172363281	38.34089660644531	960.8049926757812	449.1441040039062	273.9629821777344	956.6376953125	709.2941284179688	305.0377197265625	926.9750366210938	40.78961563110352	222.5249938964844	978.3466186523438	331.2943115234375	252.2429351806641	1115.299438476562	32.60458374023438	155.9702606201172	1056.315795898438	29.25278663635254	118.4098968505859	1027.867797851562	26.98226737976074	232.9494781494141	873.124755859375	41.99209976196289	178.6304931640625	982.4113159179688	828.9327392578125	337.6668395996094	932.342529296875	718.8815307617188	-107.5650100708008	
127	1.26	762.4985961914062	958.1956176757812	208.0701751708984	754.2100830078125	954.1466064453125	78.16707611083984	750.935791015625	1028.6337890625	143.4351043701172	987.4608764648438	1195.229370117188	117.5040130615234	749.865966796875	1147.60546875	136.6918029785156	799.7949829101562	1392.821533203125	112.4150390625	950.1705322265625	1320.069213867188	111.9581985473633	750.0508422851562	1259.76904296875	192.6559753417969	788.7705078125	1353.1171875	11.50751209259033	874.54736328125	1368.279174804688	-47.19485855102539	855.8534545898438	1247.423950195312	-113.6409454345703	872.3642578125	1042.361694335938	-118.2107391357422	806.9368286132812	1031.956176757812	-65.14574432373047	968.2756958007812	803.5570678710938	-59.96208190917969	931.078369140625	789.2931518554688	-116.4867858886719	888.0574951171875	937.6586303710938	-120.6726226806641	977.462890625	643.7684936523438	-49.47872924804688	983.704345703125	725.6802978515625	-73.7735595703125	873.1400756835938	1381.7646484375	270.2071533203125	869.236572265625	1322.93896484375	342.0189514160156	873.3390502929688	1055.546264648438	391.7539367675781	815.7598266601562	1044.575805664062	316.2485961914062	947.7977905273438	812.2333984375	408.5639953613281	898.6267700195312	987.8712158203125	400.0222778320312	1004.681335449219	660.2301025390625	345.5101928710938	1015.971374511719	732.38134765625	354.1806030273438	969.7236328125	730.287109375	405.61376953125	813.9398193359375	1575.277709960938	189.9182739257812	972.0463256835938	1623.132690429688	62.59652328491211	967.0996704101562	1622.82080078125	163.6113891601562	795.2041625976562	1564.6611328125	46.64732360839844	839.8330688476562	898.0926513671875	-28.68007469177246	851.85791015625	911.150634765625	312.6511840820312	950.4301147460938	947.6025390625	263.1982727050781	957.8245849609375	936.8021240234375	21.75701904296875	984.8480224609375	459.678955078125	-22.8243408203125	960.3195190429688	588.5980834960938	-29.59418678283691	655.7195434570312	174.4179840087891	-32.32416152954102	821.6295776367188	309.7483215332031	-40.0705451965332	808.8859252929688	42.0023078918457	26.83469009399414	749.8527221679688	75.91474914550781	68.17908477783203	745.3344116210938	88.17868041992188	-46.19060516357422	630.7678833007812	195.7215270996094	35.80263137817383	957.907470703125	449.353759765625	274.2672119140625	953.17578125	709.5145263671875	304.96923828125	926.9985961914062	40.72761154174805	222.6525268554688	976.2802124023438	331.6938171386719	252.563232421875	1115.27490234375	32.57686996459961	156.0417633056641	1056.341186523438	29.41136932373047	118.5391693115234	1027.915893554688	27.00536346435547	233.0235748291016	873.0608520507812	41.8858528137207	178.7642822265625	977.0546264648438	829.1162109375	339.246337890625	930.20703125	719.3681030273438	-108.4304962158203	
